<svg width="48" height="48" viewBox="0 0 48 48" fill="none" xmlns="http://www.w3.org/2000/svg">
<path d="M24 0C10.746 0 0 10.746 0 24C0 37.254 10.746 48 24 48C37.254 48 48 37.254 48 24C48 10.746 37.254 0 24 0ZM37.414 19.414L22.294 34.534C21.918 34.91 21.41 35.12 20.88 35.12C20.35 35.12 19.84 34.91 19.466 34.534L12.56 27.628C11.778 26.846 11.778 25.582 12.56 24.8C13.342 24.018 14.606 24.018 15.388 24.8L20.88 30.292L34.586 16.586C35.368 15.804 36.632 15.804 37.414 16.586C38.196 17.368 38.196 18.632 37.414 19.414Z" fill="#040034"/>
</svg>
