<svg width="13" height="7" viewBox="0 0 13 7" fill="none" xmlns="http://www.w3.org/2000/svg">
<path d="M12.1835 6.34192C12.1835 6.2842 12.1722 6.22704 12.1501 6.17371C12.128 6.12037 12.0957 6.07191 12.0549 6.03108L6.63788 0.614384C6.55547 0.531999 6.44371 0.485718 6.32718 0.485718C6.21066 0.485718 6.0989 0.531999 6.01649 0.614384L0.5995 6.03108C0.55868 6.07188 0.526296 6.12033 0.504197 6.17364C0.482098 6.22696 0.470717 6.2841 0.470703 6.34182C0.47069 6.39953 0.482044 6.45669 0.504118 6.51001C0.526192 6.56334 0.558553 6.6118 0.599354 6.65262C0.640155 6.69344 0.688596 6.72582 0.741912 6.74792C0.795228 6.77002 0.852375 6.7814 0.91009 6.78141C0.967804 6.78143 1.02496 6.77007 1.07828 6.748C1.13161 6.72592 1.18007 6.69356 1.22089 6.65276L6.32704 1.54661L11.4332 6.65276C11.4946 6.71426 11.573 6.75615 11.6582 6.77312C11.7435 6.79009 11.8319 6.78139 11.9122 6.74811C11.9926 6.71484 12.0612 6.65848 12.1095 6.58617C12.1578 6.51387 12.1835 6.42887 12.1835 6.34192Z" fill="black" fill-opacity="0.7"/>
</svg>
