<svg width="11" height="7" viewBox="0 0 11 7" fill="none" xmlns="http://www.w3.org/2000/svg">
<path d="M0.575483 1.03705C0.57546 1.08707 0.585293 1.13661 0.604418 1.18283C0.623544 1.22906 0.651587 1.27106 0.686949 1.30644L5.38168 6.00092C5.4531 6.07232 5.54995 6.11243 5.65094 6.11243C5.75193 6.11243 5.84879 6.07232 5.92021 6.00092L10.6149 1.30644C10.6503 1.27108 10.6784 1.2291 10.6975 1.18289C10.7167 1.13668 10.7266 1.08716 10.7266 1.03714C10.7266 0.987118 10.7167 0.937586 10.6976 0.89137C10.6785 0.845153 10.6504 0.803157 10.6151 0.76778C10.5797 0.732402 10.5377 0.704337 10.4915 0.685184C10.4453 0.666032 10.3958 0.656168 10.3458 0.656156C10.2957 0.656144 10.2462 0.665985 10.2 0.685115C10.1538 0.704246 10.1118 0.732293 10.0764 0.767653L5.65107 5.19299L1.22574 0.767653C1.17247 0.714355 1.10459 0.678053 1.03069 0.663343C0.95679 0.648633 0.880185 0.656176 0.810571 0.685016C0.740956 0.713857 0.681461 0.7627 0.639614 0.825363C0.597768 0.888027 0.575449 0.961696 0.575483 1.03705Z" fill="#040034"/>
</svg>
