<svg width="14" height="25" viewBox="0 0 14 25" fill="none" xmlns="http://www.w3.org/2000/svg">
<path d="M12.6812 24.3683C12.5657 24.3683 12.4514 24.3456 12.3447 24.3015C12.2381 24.2574 12.1411 24.1927 12.0595 24.111L1.22608 13.2771C1.06131 13.1122 0.96875 12.8887 0.96875 12.6557C0.96875 12.4226 1.06131 12.1991 1.22608 12.0343L12.0595 1.20031C12.1411 1.11867 12.238 1.0539 12.3446 1.00971C12.4512 0.965508 12.5655 0.942746 12.681 0.942719C12.7964 0.942691 12.9107 0.9654 13.0173 1.00955C13.124 1.0537 13.2209 1.11842 13.3025 1.20002C13.3842 1.28162 13.449 1.3785 13.4932 1.48514C13.5374 1.59177 13.5601 1.70606 13.5601 1.82149C13.5602 1.93692 13.5375 2.05123 13.4933 2.15788C13.4492 2.26453 13.3844 2.36145 13.3028 2.44309L3.09054 12.6554L13.3028 22.8677C13.4258 22.9906 13.5096 23.1473 13.5436 23.3178C13.5775 23.4883 13.5601 23.6651 13.4935 23.8258C13.427 23.9864 13.3143 24.1237 13.1697 24.2203C13.0251 24.3169 12.8551 24.3684 12.6812 24.3683Z" fill="#040034"/>
</svg>
