<svg width="14" height="25" viewBox="0 0 14 25" fill="none" xmlns="http://www.w3.org/2000/svg">
<path d="M1.31884 24.3683C1.43428 24.3683 1.5486 24.3456 1.65527 24.3015C1.76194 24.2574 1.85886 24.1927 1.94052 24.111L12.7739 13.2771C12.9387 13.1122 13.0313 12.8887 13.0313 12.6557C13.0313 12.4226 12.9387 12.1991 12.7739 12.0343L1.94052 1.20031C1.85892 1.11867 1.76203 1.0539 1.6554 1.00971C1.54877 0.965508 1.43447 0.942746 1.31905 0.942719C1.20362 0.942691 1.08931 0.9654 0.982659 1.00955C0.876006 1.0537 0.779091 1.11842 0.697451 1.20002C0.61581 1.28162 0.551044 1.3785 0.506846 1.48514C0.462647 1.59177 0.439884 1.70606 0.439857 1.82149C0.43983 1.93692 0.462539 2.05123 0.506687 2.15788C0.550835 2.26453 0.615558 2.36145 0.69716 2.44309L10.9095 12.6554L0.69716 22.8677C0.574162 22.9906 0.49039 23.1473 0.456444 23.3178C0.422498 23.4883 0.439902 23.6651 0.506458 23.8258C0.573013 23.9864 0.685728 24.1237 0.830337 24.2203C0.974945 24.3169 1.14495 24.3684 1.31884 24.3683Z" fill="#040034"/>
</svg>
