<svg width="60" height="38" viewBox="0 0 60 38" fill="none" xmlns="http://www.w3.org/2000/svg">
<path d="M38.4651 4.48718H20.9844V33.1453H38.4651V4.48718Z" fill="#FF5F00"/>
<path d="M22.7768 18.8235C22.7746 16.064 23.3978 13.3401 24.5993 10.858C25.8007 8.37597 27.5489 6.20074 29.7116 4.49696C27.033 2.38403 23.8163 1.07012 20.429 0.705407C17.0417 0.340693 13.6205 0.939885 10.5565 2.4345C7.49241 3.92912 4.90908 6.25885 3.10173 9.15745C1.29438 12.056 0.335938 15.4066 0.335938 18.826C0.335937 22.2455 1.29438 25.596 3.10173 28.4946C4.90908 31.3932 7.49241 33.723 10.5565 35.2176C13.6205 36.7122 17.0417 37.3114 20.429 36.9467C23.8163 36.582 27.033 35.2681 29.7116 33.1551C27.5483 31.4508 25.7997 29.2748 24.5982 26.7918C23.3967 24.3088 22.7738 21.5839 22.7768 18.8235Z" fill="#EB001B"/>
<path d="M59.0736 18.8186C59.0735 22.2383 58.1149 25.5891 56.3072 28.4877C54.4995 31.3864 51.9158 33.7161 48.8514 35.2105C45.7869 36.7049 42.3654 37.3038 38.9779 36.9385C35.5904 36.5733 32.3737 35.2587 29.6953 33.1451C31.8571 31.4398 33.6048 29.264 34.8066 26.7818C36.0083 24.2996 36.6328 21.5758 36.6328 18.8161C36.6328 16.0563 36.0083 13.3325 34.8066 10.8503C33.6048 8.36811 31.8571 6.19228 29.6953 4.48698C32.3737 2.37339 35.5904 1.05884 38.9779 0.693606C42.3654 0.328368 45.7869 0.927175 48.8514 2.42158C51.9158 3.91598 54.4995 6.24568 56.3072 9.14437C58.1149 12.0431 59.0735 15.3938 59.0736 18.8135V18.8186Z" fill="#F79E1B"/>
</svg>
