<svg width="13" height="7" viewBox="0 0 13 7" fill="none" xmlns="http://www.w3.org/2000/svg">
<path d="M12.1854 0.658076C12.1855 0.715796 12.1741 0.772956 12.1521 0.82629C12.13 0.879625 12.0976 0.928089 12.0568 0.968916L6.63983 6.38562C6.55742 6.468 6.44567 6.51428 6.32914 6.51428C6.21261 6.51428 6.10085 6.468 6.01845 6.38562L0.601453 0.968916C0.560633 0.928115 0.528249 0.879674 0.50615 0.826358C0.484051 0.773042 0.47267 0.715895 0.472656 0.65818C0.472643 0.600465 0.483997 0.543314 0.506071 0.489987C0.528145 0.43666 0.560506 0.388203 0.601307 0.347383C0.642108 0.306562 0.690549 0.274179 0.743865 0.25208C0.797181 0.229981 0.854328 0.218599 0.912043 0.218585C0.969758 0.218572 1.02691 0.229927 1.08024 0.252001C1.13356 0.274075 1.18202 0.306436 1.22284 0.347237L6.32899 5.45339L11.4351 0.347237C11.4966 0.285738 11.5749 0.243852 11.6602 0.226879C11.7455 0.209906 11.8339 0.218608 11.9142 0.251886C11.9945 0.285164 12.0632 0.341521 12.1114 0.413826C12.1597 0.48613 12.1855 0.571132 12.1854 0.658076Z" fill="#040034"/>
</svg>
