<svg width="26" height="26" viewBox="0 0 26 26" fill="none" xmlns="http://www.w3.org/2000/svg">
<path d="M3.25 8.125C4.14746 8.125 4.875 7.39746 4.875 6.5C4.875 5.60254 4.14746 4.875 3.25 4.875C2.35254 4.875 1.625 5.60254 1.625 6.5C1.625 7.39746 2.35254 8.125 3.25 8.125Z" fill="white"/>
<path d="M3.25 14.625C4.14746 14.625 4.875 13.8975 4.875 13C4.875 12.1025 4.14746 11.375 3.25 11.375C2.35254 11.375 1.625 12.1025 1.625 13C1.625 13.8975 2.35254 14.625 3.25 14.625Z" fill="white"/>
<path d="M3.25 21.125C4.14746 21.125 4.875 20.3975 4.875 19.5C4.875 18.6025 4.14746 17.875 3.25 17.875C2.35254 17.875 1.625 18.6025 1.625 19.5C1.625 20.3975 2.35254 21.125 3.25 21.125Z" fill="white"/>
<path d="M22.75 4.875H6.04828C6.34377 5.36553 6.49991 5.92735 6.49991 6.5C6.49991 7.07265 6.34377 7.63447 6.04828 8.125H22.75C23.181 8.125 23.5943 7.95379 23.8991 7.64905C24.2038 7.3443 24.375 6.93098 24.375 6.5C24.375 6.06902 24.2038 5.6557 23.8991 5.35095C23.5943 5.0462 23.181 4.875 22.75 4.875Z" fill="white"/>
<path d="M22.75 11.375H6.04828C6.34377 11.8655 6.49991 12.4273 6.49991 13C6.49991 13.5727 6.34377 14.1345 6.04828 14.625H22.75C23.181 14.625 23.5943 14.4538 23.8991 14.149C24.2038 13.8443 24.375 13.431 24.375 13C24.375 12.569 24.2038 12.1557 23.8991 11.851C23.5943 11.5462 23.181 11.375 22.75 11.375Z" fill="white"/>
<path d="M22.75 17.875H6.04828C6.34377 18.3655 6.49991 18.9273 6.49991 19.5C6.49991 20.0727 6.34377 20.6345 6.04828 21.125H22.75C23.181 21.125 23.5943 20.9538 23.8991 20.649C24.2038 20.3443 24.375 19.931 24.375 19.5C24.375 19.069 24.2038 18.6557 23.8991 18.351C23.5943 18.0462 23.181 17.875 22.75 17.875Z" fill="white"/>
</svg>
