<svg width="26" height="26" viewBox="0 0 26 26" fill="none" xmlns="http://www.w3.org/2000/svg">
<path d="M22.2055 6.09541C23.1544 6.42886 23.8346 7.33282 23.8346 8.39567V19.229C23.8346 21.7718 21.7733 23.8332 19.2305 23.8332H8.39714C7.33429 23.8332 6.43032 23.1529 6.09687 22.2041L8.36893 22.2077L19.2305 22.2082C20.8758 22.2082 22.2096 20.8744 22.2096 19.229V8.39567L22.2053 8.34044L22.2055 6.09541ZM18.6853 2.1665C20.0316 2.1665 21.1228 3.25781 21.1228 4.604V18.6839C21.1228 20.0301 20.0316 21.1214 18.6853 21.1214H4.60547C3.25928 21.1214 2.16797 20.0301 2.16797 18.6839V4.604C2.16797 3.25781 3.25928 2.1665 4.60547 2.1665H18.6853ZM18.6853 3.7915H4.60547C4.15674 3.7915 3.79297 4.15528 3.79297 4.604V18.6839C3.79297 19.1326 4.15674 19.4964 4.60547 19.4964H18.6853C19.1341 19.4964 19.4978 19.1326 19.4978 18.6839V4.604C19.4978 4.15528 19.1341 3.7915 18.6853 3.7915Z" fill="white"/>
</svg>
