<svg width="30" height="30" viewBox="0 0 30 30" fill="none" xmlns="http://www.w3.org/2000/svg">
<path d="M16.1126 1.81244L26.1126 6.81244C26.5291 7.01941 26.8796 7.33847 27.1247 7.73375C27.3698 8.12902 27.4998 8.58484 27.5001 9.04994V20.9624C27.4998 21.4275 27.3698 21.8834 27.1247 22.2786C26.8796 22.6739 26.5291 22.993 26.1126 23.1999L16.1126 28.1999C15.7652 28.3737 15.3822 28.4642 14.9938 28.4642C14.6054 28.4642 14.2224 28.3737 13.8751 28.1999L3.87506 23.1999C3.45897 22.9903 3.10975 22.6685 2.8668 22.271C2.62384 21.8734 2.49682 21.4159 2.50006 20.9499V9.04994C2.50031 8.58484 2.6303 8.12902 2.87541 7.73375C3.12052 7.33847 3.47104 7.01941 3.88756 6.81244L13.8876 1.81244C14.2333 1.64066 14.614 1.55127 15.0001 1.55127C15.3861 1.55127 15.7669 1.64066 16.1126 1.81244V1.81244Z" stroke="#040034" stroke-width="2" stroke-linecap="round" stroke-linejoin="round"/>
<path d="M2.90039 7.69995L15.0004 13.75L27.1004 7.69995" stroke="#040034" stroke-width="2" stroke-linecap="round" stroke-linejoin="round"/>
<path d="M15 28.45V13.75" stroke="#040034" stroke-width="2" stroke-linecap="round" stroke-linejoin="round"/>
</svg>
