<svg width="22" height="26" viewBox="0 0 22 26" fill="none" xmlns="http://www.w3.org/2000/svg">
<path d="M18.2942 3.7658C16.3598 1.83138 13.7362 0.744629 11.0005 0.744629C8.26478 0.744629 5.64114 1.83138 3.70672 3.7658C1.77229 5.70022 0.685547 8.32386 0.685547 11.0595C0.685547 13.7952 1.77229 16.4189 3.70672 18.3533L7.55047 22.197C7.63788 22.2845 7.74165 22.3538 7.85586 22.4011C7.97007 22.4484 8.09247 22.4728 8.21609 22.4728C8.33971 22.4728 8.46212 22.4484 8.57633 22.4011C8.69053 22.3538 8.79431 22.2845 8.88172 22.197C8.96913 22.1096 9.03847 22.0059 9.08577 21.8917C9.13308 21.7774 9.15743 21.655 9.15743 21.5314C9.15743 21.4078 9.13308 21.2854 9.08577 21.1712C9.03847 21.057 8.96913 20.9532 8.88172 20.8658L5.03797 17.022C3.85691 15.8425 3.05227 14.3391 2.72586 12.7021C2.39945 11.0651 2.56592 9.36802 3.20423 7.82566C3.84253 6.28329 4.92398 4.96492 6.31175 4.03733C7.69952 3.10974 9.33124 2.61462 11.0005 2.61462C12.6697 2.61462 14.3014 3.10974 15.6892 4.03733C17.077 4.96492 18.1584 6.28329 18.7967 7.82566C19.435 9.36802 19.6015 11.0651 19.2751 12.7021C18.9487 14.3391 18.144 15.8425 16.963 17.022L10.3348 23.6502C10.247 23.7373 10.1772 23.841 10.1296 23.9553C10.082 24.0695 10.0575 24.192 10.0575 24.3158C10.0575 24.4396 10.082 24.5621 10.1296 24.6763C10.1772 24.7906 10.247 24.8943 10.3348 24.9814C10.422 25.0693 10.5257 25.139 10.6399 25.1866C10.7542 25.2342 10.8767 25.2587 11.0005 25.2587C11.1242 25.2587 11.2468 25.2342 11.361 25.1866C11.4753 25.139 11.5789 25.0693 11.6661 24.9814L18.2942 18.3533C19.2523 17.3956 20.0124 16.2586 20.5309 15.0071C21.0495 13.7556 21.3164 12.4142 21.3164 11.0595C21.3164 9.70488 21.0495 8.36349 20.5309 7.11201C20.0124 5.86052 19.2523 4.72347 18.2942 3.7658V3.7658Z" fill="#040034"/>
<path d="M15.6875 11.125C15.6875 10.1979 15.4126 9.29162 14.8975 8.52077C14.3824 7.74991 13.6504 7.1491 12.7938 6.79432C11.9373 6.43953 10.9948 6.3467 10.0855 6.52757C9.17623 6.70844 8.341 7.15488 7.68544 7.81044C7.02988 8.466 6.58344 9.30123 6.40257 10.2105C6.2217 11.1198 6.31453 12.0623 6.66932 12.9188C7.0241 13.7754 7.62491 14.5074 8.39577 15.0225C9.16662 15.5376 10.0729 15.8125 11 15.8125C12.2432 15.8125 13.4355 15.3186 14.3146 14.4396C15.1936 13.5605 15.6875 12.3682 15.6875 11.125V11.125ZM8.1875 11.125C8.1875 10.5687 8.35245 10.025 8.66149 9.56246C8.97054 9.09995 9.40979 8.73946 9.92371 8.52659C10.4376 8.31372 11.0031 8.25802 11.5487 8.36654C12.0943 8.47506 12.5954 8.74293 12.9887 9.13626C13.3821 9.5296 13.6499 10.0307 13.7585 10.5763C13.867 11.1219 13.8113 11.6874 13.5984 12.2013C13.3855 12.7152 13.0251 13.1545 12.5625 13.4635C12.1 13.7726 11.5563 13.9375 11 13.9375C10.2541 13.9375 9.53871 13.6412 9.01126 13.1137C8.48382 12.5863 8.1875 11.8709 8.1875 11.125V11.125Z" fill="#040034"/>
</svg>
