<svg width="99" height="22" viewBox="0 0 99 22" fill="none" xmlns="http://www.w3.org/2000/svg">
<path d="M35.4236 6.15454C36.527 6.15454 37.4216 7.034 37.4216 8.11886C37.4216 9.20373 36.527 10.0832 35.4236 10.0832L28.7636 10.0832C27.6602 10.0832 26.7656 9.20372 26.7656 8.11886C26.7656 7.034 27.6602 6.15454 28.7636 6.15454L35.4236 6.15454Z" fill="#040034"/>
<path d="M35.4236 18.0714C36.527 18.0714 37.4216 18.9509 37.4216 20.0357C37.4216 21.1206 36.527 22.0001 35.4236 22.0001L28.7636 22.0001C27.6602 22.0001 26.7656 21.1206 26.7656 20.0357C26.7656 18.9509 27.6602 18.0714 28.7636 18.0714H35.4236Z" fill="#040034"/>
<path d="M34.0916 12.1785C35.195 12.1785 36.0896 13.0579 36.0896 14.1428C36.0896 15.2276 35.195 16.1071 34.0916 16.1071H28.7636C27.6602 16.1071 26.7656 15.2276 26.7656 14.1428C26.7656 13.0579 27.6602 12.1785 28.7636 12.1785H34.0916Z" fill="#040034"/>
<path d="M26.7656 8.11886C26.7656 7.034 27.6602 6.15454 28.7636 6.15454C29.8671 6.15454 30.7616 7.034 30.7616 8.11886V20.0357C30.7616 21.1206 29.8671 22.0001 28.7636 22.0001C27.6602 22.0001 26.7656 21.1206 26.7656 20.0357V8.11886Z" fill="#040034"/>
<path d="M48.0798 6.15454C49.1833 6.15454 50.0778 7.034 50.0778 8.11886C50.0778 9.20373 49.1833 10.0832 48.0798 10.0832L41.4199 10.0832C40.3164 10.0832 39.4219 9.20372 39.4219 8.11886C39.4219 7.034 40.3164 6.15454 41.4199 6.15454L48.0798 6.15454Z" fill="#040034"/>
<path d="M48.0798 18.0714C49.1833 18.0714 50.0778 18.9509 50.0778 20.0357C50.0778 21.1206 49.1833 22.0001 48.0798 22.0001L41.4199 22.0001C40.3164 22.0001 39.4219 21.1206 39.4219 20.0357C39.4219 18.9509 40.3164 18.0714 41.4199 18.0714H48.0798Z" fill="#040034"/>
<path d="M46.7478 12.1785C47.8513 12.1785 48.7458 13.0579 48.7458 14.1428C48.7458 15.2276 47.8513 16.1071 46.7478 16.1071H41.4199C40.3164 16.1071 39.4219 15.2276 39.4219 14.1428C39.4219 13.0579 40.3164 12.1785 41.4199 12.1785H46.7478Z" fill="#040034"/>
<path d="M39.4219 8.11886C39.4219 7.034 40.3164 6.15454 41.4199 6.15454C42.5233 6.15454 43.4179 7.034 43.4179 8.11886V20.0357C43.4179 21.1206 42.5233 22.0001 41.4199 22.0001C40.3164 22.0001 39.4219 21.1206 39.4219 20.0357V8.11886Z" fill="#040034"/>
<path d="M98.8114 19.0511C99.2778 20.0343 98.8451 21.2031 97.845 21.6616C96.8449 22.12 95.6562 21.6947 95.1898 20.7114L89.5606 8.84292C89.0942 7.8597 89.5269 6.69097 90.527 6.23248C91.5271 5.774 92.7158 6.19938 93.1822 7.1826L98.8114 19.0511Z" fill="#040034"/>
<path d="M83.8244 19.0838C83.358 20.067 83.7907 21.2357 84.7908 21.6942C85.7909 22.1527 86.9796 21.7273 87.446 20.7441L93.0752 8.87556C93.5416 7.89234 93.1089 6.72361 92.1088 6.26513C91.1087 5.80664 89.92 6.23203 89.4536 7.21525L83.8244 19.0838Z" fill="#040034"/>
<path d="M66.579 8.85139C67.0453 7.86817 66.6127 6.69944 65.6126 6.24096C64.6125 5.78247 63.4238 6.20786 62.9574 7.19108L57.3282 19.0596C56.8618 20.0428 57.2945 21.2116 58.2946 21.67C59.2947 22.1285 60.4834 21.7031 60.9498 20.7199L66.579 8.85139Z" fill="#040034"/>
<path d="M51.592 8.81875C51.1256 7.83553 51.5583 6.6668 52.5584 6.20831C53.5584 5.74983 54.7472 6.17521 55.2136 7.15843L60.8428 19.027C61.3091 20.0102 60.8765 21.1789 59.8764 21.6374C58.8763 22.0959 57.6876 21.6705 57.2212 20.6873L51.592 8.81875Z" fill="#040034"/>
<path d="M83.3622 8.85139C83.8285 7.86817 83.3959 6.69944 82.3958 6.24096C81.3957 5.78247 80.207 6.20786 79.7406 7.19108L74.1114 19.0596C73.645 20.0428 74.0777 21.2116 75.0778 21.67C76.0779 22.1285 77.2666 21.7031 77.733 20.7199L83.3622 8.85139Z" fill="#040034"/>
<path d="M68.3752 8.81875C67.9088 7.83553 68.3415 6.6668 69.3416 6.20831C70.3417 5.74983 71.5304 6.17521 71.9968 7.15843L77.626 19.027C78.0923 20.0102 77.6597 21.1789 76.6596 21.6374C75.6595 22.0959 74.4708 21.6705 74.0044 20.6873L68.3752 8.81875Z" fill="#040034"/>
<path d="M3.0054 0.00268555C1.59788 0.00268555 0.66109 1.4574 1.24342 2.7388L9.10877 20.0463C9.63048 21.1943 10.7751 21.9314 12.0361 21.9314V21.9314C13.2941 21.9314 14.4366 21.1978 14.96 20.0538L20.658 7.60027C20.995 6.86379 20.4568 6.02567 19.6469 6.02567V6.02567C18.5973 6.02567 17.6489 5.89472 17.1827 6.87688L12.2355 17.6326L4.38021 0.867651C4.13325 0.339783 3.59634 0.00268555 3.0054 0.00268555V0.00268555Z" fill="#040034"/>
<path d="M11.2812 14.0601C11.4572 14.4379 11.9931 14.4417 12.1744 14.0664L13.1127 12.1238C13.512 11.2971 13.5157 10.334 13.1227 9.50423L9.55143 1.96406C8.98364 0.766329 7.75657 0 6.40711 0V0C5.62651 0 5.10992 0.810487 5.43951 1.5181L11.2812 14.0601Z" fill="#040034"/>
<path d="M15.6792 20.2438C15.3247 21.0007 15.8771 21.8693 16.7129 21.8693V21.8693C17.9865 21.8693 19.1421 21.1417 19.6624 20.0109L24.986 8.45634C25.5095 7.3201 24.6794 6.0238 23.4284 6.0238H23.0179C22.6029 6.0238 22.2254 6.26389 22.0494 6.63973L15.6792 20.2438Z" fill="#040034"/>
</svg>
