<svg width="21" height="15" viewBox="0 0 21 15" fill="none" xmlns="http://www.w3.org/2000/svg">
<path fill-rule="evenodd" clip-rule="evenodd" d="M14.6826 8.5127C15.9099 9.34582 16.7699 10.4746 16.7699 11.9796V14.6671H19.4574C19.9501 14.6671 20.3532 14.2639 20.3532 13.7712V11.9796C20.3532 10.0267 17.1551 8.87103 14.6826 8.5127Z" fill="#040034"/>
<path d="M7.81087 7.50016C9.78989 7.50016 11.3942 5.89585 11.3942 3.91683C11.3942 1.93781 9.78989 0.333496 7.81087 0.333496C5.83185 0.333496 4.22754 1.93781 4.22754 3.91683C4.22754 5.89585 5.83185 7.50016 7.81087 7.50016Z" fill="#040034"/>
<path fill-rule="evenodd" clip-rule="evenodd" d="M13.1876 7.50016C15.1673 7.50016 16.7709 5.89662 16.7709 3.91683C16.7709 1.93704 15.1673 0.333496 13.1876 0.333496C12.7665 0.333496 12.3723 0.423079 11.9961 0.548496C12.7396 1.4712 13.1876 2.64475 13.1876 3.91683C13.1876 5.18891 12.7396 6.36245 11.9961 7.28516C12.3723 7.41058 12.7665 7.50016 13.1876 7.50016Z" fill="#040034"/>
<path fill-rule="evenodd" clip-rule="evenodd" d="M7.8112 8.396C5.41932 8.396 0.644531 9.59641 0.644531 11.9793V13.771C0.644531 14.2637 1.04766 14.6668 1.54036 14.6668H14.082C14.5747 14.6668 14.9779 14.2637 14.9779 13.771V11.9793C14.9779 9.59641 10.2031 8.396 7.8112 8.396Z" fill="#040034"/>
</svg>
