<svg width="25" height="21" viewBox="0 0 25 21" fill="none" xmlns="http://www.w3.org/2000/svg">
<path d="M22.9678 7.45866H17.9348L13.3326 0.565822C13.1329 0.271615 12.7967 0.124512 12.4605 0.124512C12.1242 0.124512 11.788 0.271615 11.5883 0.576329L6.98612 7.45866H1.95308C1.37518 7.45866 0.902344 7.93149 0.902344 8.5094C0.902344 8.60397 0.912851 8.69853 0.944373 8.7931L3.61325 18.5334C3.85492 19.4161 4.66399 20.0675 5.63066 20.0675H19.2903C20.2569 20.0675 21.066 19.4161 21.3182 18.5334L23.9871 8.7931L24.0186 8.5094C24.0186 7.93149 23.5457 7.45866 22.9678 7.45866ZM12.4605 3.04556L15.4025 7.45866H9.51839L12.4605 3.04556ZM19.2903 17.966L5.64117 17.9765L3.32955 9.56014H21.6019L19.2903 17.966ZM12.4605 11.6616C11.3046 11.6616 10.359 12.6073 10.359 13.7631C10.359 14.9189 11.3046 15.8646 12.4605 15.8646C13.6163 15.8646 14.5619 14.9189 14.5619 13.7631C14.5619 12.6073 13.6163 11.6616 12.4605 11.6616Z" fill="#040034"/>
</svg>
