<svg width="22" height="22" viewBox="0 0 22 22" fill="none" xmlns="http://www.w3.org/2000/svg">
<path d="M10.5625 21.125C8.47344 21.125 6.43129 20.5055 4.69429 19.3449C2.9573 18.1843 1.60348 16.5346 0.804027 14.6046C0.00457657 12.6746 -0.204596 10.5508 0.20296 8.50186C0.610517 6.45294 1.6165 4.57088 3.09369 3.09369C4.57088 1.6165 6.45294 0.610517 8.50186 0.20296C10.5508 -0.204596 12.6746 0.00457657 14.6046 0.804027C16.5346 1.60348 18.1843 2.9573 19.3449 4.69429C20.5055 6.43129 21.125 8.47344 21.125 10.5625C21.125 13.3639 20.0122 16.0505 18.0313 18.0313C16.0505 20.0122 13.3639 21.125 10.5625 21.125V21.125ZM10.5625 1.625C8.79483 1.625 7.06686 2.14918 5.5971 3.13124C4.12733 4.11331 2.98179 5.50916 2.30533 7.14227C1.62887 8.77539 1.45188 10.5724 1.79674 12.3061C2.14159 14.0398 2.99281 15.6323 4.24274 16.8823C5.49267 18.1322 7.08518 18.9834 8.81888 19.3283C10.5526 19.6731 12.3496 19.4961 13.9827 18.8197C15.6159 18.1432 17.0117 16.9977 17.9938 15.5279C18.9758 14.0581 19.5 12.3302 19.5 10.5625C19.5 8.19213 18.5584 5.91884 16.8823 4.24274C15.2062 2.56663 12.9329 1.625 10.5625 1.625Z" fill="#040034"/>
<path d="M10.5625 11.375C9.75902 11.375 8.97357 11.1367 8.3055 10.6903C7.63742 10.244 7.11672 9.60948 6.80924 8.86715C6.50176 8.12483 6.42131 7.308 6.57806 6.51995C6.73481 5.7319 7.12173 5.00803 7.68988 4.43988C8.25803 3.87173 8.9819 3.48481 9.76995 3.32806C10.558 3.17131 11.3748 3.25176 12.1172 3.55924C12.8595 3.86672 13.494 4.38742 13.9403 5.0555C14.3867 5.72357 14.625 6.50902 14.625 7.3125C14.625 8.38994 14.197 9.42326 13.4351 10.1851C12.6733 10.947 11.6399 11.375 10.5625 11.375ZM10.5625 4.875C10.0804 4.875 9.60914 5.01796 9.2083 5.28579C8.80745 5.55363 8.49503 5.93432 8.31055 6.37971C8.12606 6.82511 8.07779 7.31521 8.17184 7.78803C8.26589 8.26086 8.49804 8.69518 8.83893 9.03608C9.17982 9.37697 9.61414 9.60912 10.087 9.70317C10.5598 9.79722 11.0499 9.74895 11.4953 9.56446C11.9407 9.37997 12.3214 9.06755 12.5892 8.6667C12.857 8.26586 13 7.79459 13 7.3125C13 6.66604 12.7432 6.04605 12.2861 5.58893C11.829 5.13181 11.209 4.875 10.5625 4.875Z" fill="#040034"/>
<path d="M18.3223 17.0625C18.2095 17.0633 18.0978 17.0406 17.9943 16.9958C17.8908 16.951 17.7978 16.8852 17.7211 16.8025C16.8587 15.8618 15.8104 15.1104 14.6426 14.5957C13.4748 14.081 12.2129 13.8143 10.9367 13.8125H10.1892C7.81036 13.8074 5.5229 14.7282 3.81107 16.38C3.6529 16.5105 3.45124 16.5764 3.24653 16.5644C3.04182 16.5525 2.84921 16.4636 2.70733 16.3155C2.56545 16.1675 2.4848 15.9712 2.48155 15.7662C2.4783 15.5612 2.5527 15.3625 2.68982 15.21C4.70147 13.2657 7.39147 12.1815 10.1892 12.1875H10.9367C12.4367 12.1909 13.9199 12.5045 15.293 13.1085C16.666 13.7126 17.8993 14.594 18.9154 15.6975C19.0228 15.8133 19.0941 15.9578 19.1206 16.1134C19.1472 16.269 19.1278 16.429 19.0649 16.5738C19.002 16.7186 18.8982 16.842 18.7664 16.9287C18.6345 17.0155 18.4802 17.062 18.3223 17.0625V17.0625Z" fill="#040034"/>
</svg>
