<svg width="25" height="21" viewBox="0 0 25 21" fill="none" xmlns="http://www.w3.org/2000/svg">
<path d="M22.9678 7.45915H17.9348L13.3326 0.56631C13.1329 0.272103 12.7967 0.125 12.4605 0.125C12.1242 0.125 11.788 0.272103 11.5883 0.576817L6.98612 7.45915H1.95308C1.37518 7.45915 0.902344 7.93198 0.902344 8.50989C0.902344 8.60445 0.912851 8.69902 0.944373 8.79359L3.61325 18.5339C3.85492 19.4165 4.66399 20.068 5.63066 20.068H19.2903C20.2569 20.068 21.066 19.4165 21.3182 18.5339L23.9871 8.79359L24.0186 8.50989C24.0186 7.93198 23.5457 7.45915 22.9678 7.45915ZM12.4605 3.04605L15.4025 7.45915H9.51839L12.4605 3.04605ZM19.2903 17.9665L5.64117 17.977L3.32955 9.56063H21.6019L19.2903 17.9665ZM12.4605 11.6621C11.3046 11.6621 10.359 12.6078 10.359 13.7636C10.359 14.9194 11.3046 15.8651 12.4605 15.8651C13.6163 15.8651 14.5619 14.9194 14.5619 13.7636C14.5619 12.6078 13.6163 11.6621 12.4605 11.6621Z" fill="#040034"/>
</svg>
