<svg width="20" height="20" viewBox="0 0 20 20" fill="none" xmlns="http://www.w3.org/2000/svg">
<ellipse cx="9.86179" cy="9.72" rx="9.86179" ry="9.72" fill="#DAD9DE"/>
<path d="M10.0162 9.79442C11.1648 9.79442 12.0959 8.87669 12.0959 7.74462C12.0959 6.61255 11.1648 5.69482 10.0162 5.69482C8.86764 5.69482 7.93652 6.61255 7.93652 7.74462C7.93652 8.87669 8.86764 9.79442 10.0162 9.79442Z" fill="white"/>
<path d="M14.175 13.3816V13.894C14.175 14.0299 14.1202 14.1603 14.0227 14.2564C13.9252 14.3525 13.793 14.4065 13.6551 14.4065H6.37613C6.23823 14.4065 6.10599 14.3525 6.00848 14.2564C5.91098 14.1603 5.8562 14.0299 5.8562 13.894V13.3816C5.8562 12.5661 6.18487 11.7841 6.76989 11.2074C7.35492 10.6308 8.14839 10.3069 8.97575 10.3069H11.0554C11.8828 10.3069 12.6763 10.6308 13.2613 11.2074C13.8463 11.7841 14.175 12.5661 14.175 13.3816Z" fill="white"/>
</svg>
