<svg width="26" height="26" viewBox="0 0 26 26" fill="none" xmlns="http://www.w3.org/2000/svg">
<path d="M3.88501 4.53155C3.88501 4.17367 4.17513 3.88354 4.53301 3.88354H5.10112C6.04324 3.88354 6.58418 4.49666 6.8975 5.10782C7.11222 5.52663 7.26683 6.03755 7.39459 6.47998H20.7367C21.5966 6.47998 22.218 7.30217 21.9834 8.1295L20.0453 14.9653C19.7292 16.0805 18.7109 16.8502 17.5516 16.8502H10.9689C9.80019 16.8502 8.77601 16.068 8.46835 14.9405L7.63578 11.8893C7.63066 11.8754 7.62596 11.8613 7.62173 11.8469L6.2877 7.31381C6.24193 7.16342 6.19981 7.01766 6.15914 6.87693C6.02973 6.42912 5.91505 6.03227 5.74423 5.69907C5.53771 5.29624 5.34806 5.17955 5.10112 5.17955H4.53301C4.17513 5.17955 3.88501 4.88944 3.88501 4.53155Z" fill="#DAD9DE"/>
<path d="M11.0158 22.0313C12.0894 22.0313 12.9598 21.1609 12.9598 20.0873C12.9598 19.0137 12.0894 18.1433 11.0158 18.1433C9.94213 18.1433 9.07178 19.0137 9.07178 20.0873C9.07178 21.1609 9.94213 22.0313 11.0158 22.0313Z" fill="#DAD9DE"/>
<path d="M17.4956 22.0313C18.5692 22.0313 19.4396 21.1609 19.4396 20.0873C19.4396 19.0137 18.5692 18.1433 17.4956 18.1433C16.422 18.1433 15.5516 19.0137 15.5516 20.0873C15.5516 21.1609 16.422 22.0313 17.4956 22.0313Z" fill="#DAD9DE"/>
</svg>
