<svg width="18" height="21" viewBox="0 0 18 21" fill="none" xmlns="http://www.w3.org/2000/svg">
<path d="M17.0474 16.0776C17.0474 16.2745 16.9692 16.4634 16.8299 16.6026C16.6907 16.7419 16.5018 16.8201 16.3049 16.8201H1.4549C1.25798 16.8201 1.06912 16.7419 0.929876 16.6026C0.79063 16.4634 0.712402 16.2745 0.712402 16.0776C0.712402 15.8807 0.79063 15.6918 0.929876 15.5526C1.06912 15.4133 1.25798 15.3351 1.4549 15.3351H2.1974V8.80489C2.1997 7.16321 2.80667 5.5799 3.90238 4.35738C4.9981 3.13486 6.50576 2.35882 8.1374 2.17749V1.22761C8.1374 1.03068 8.21563 0.841826 8.35488 0.702581C8.49412 0.563335 8.68298 0.485107 8.8799 0.485107C9.07683 0.485107 9.26569 0.563335 9.40493 0.702581C9.54418 0.841826 9.6224 1.03068 9.6224 1.22761V2.18113C11.2556 2.36809 12.7632 3.14877 13.8584 4.37473C14.9536 5.60068 15.56 7.18638 15.5624 8.83029V15.3351H16.3049C16.5018 15.3351 16.6907 15.4133 16.8299 15.5526C16.9692 15.6918 17.0474 15.8807 17.0474 16.0776ZM8.8799 17.5626C8.5862 17.5626 8.29909 17.6497 8.05488 17.8129C7.81067 17.976 7.62034 18.208 7.50794 18.4793C7.39555 18.7507 7.36614 19.0493 7.42344 19.3373C7.48074 19.6254 7.62217 19.89 7.82985 20.0977C8.03753 20.3053 8.30213 20.4468 8.59019 20.5041C8.87826 20.5614 9.17684 20.532 9.44819 20.4196C9.71954 20.3072 9.95146 20.1168 10.1146 19.8726C10.2778 19.6284 10.3649 19.3413 10.3649 19.0476C10.3649 18.6538 10.2084 18.276 9.92996 17.9976C9.65146 17.7191 9.27375 17.5626 8.8799 17.5626Z" fill="#DAD9DE"/>
</svg>
