<svg width="45" height="31" viewBox="0 0 45 31" fill="none" xmlns="http://www.w3.org/2000/svg">
<rect x="1.4375" y="0.5" width="42.9385" height="29.1292" rx="5.5" fill="#1F72CD" stroke="#D9D9D9"/>
<path fill-rule="evenodd" clip-rule="evenodd" d="M8.81508 10.6707L4.7041 19.7681H9.62551L10.2356 18.3176H11.6302L12.2403 19.7681H17.6574V18.661L18.1401 19.7681H20.9423L21.4249 18.6376V19.7681H32.691L34.0609 18.3553L35.3436 19.7681L41.1301 19.7798L37.0062 15.2448L41.1301 10.6707H35.4334L34.0999 12.0574L32.8575 10.6707H20.6015L19.5491 13.0188L18.472 10.6707H13.5608V11.7401L13.0145 10.6707H8.81508ZM9.76734 11.9625H12.1663L14.8931 18.1315V11.9625H17.521L19.6271 16.3857L21.5682 11.9625H24.183V18.4905H22.5919L22.579 13.3752L20.2594 18.4905H18.8361L16.5035 13.3752V18.4905H13.2304L12.6099 17.027H9.25739L8.63815 18.4892H6.88444L9.76734 11.9625ZM32.1082 11.9625H25.6387V18.4867H32.008L34.0609 16.3245L36.0397 18.4867H38.1081L35.1017 15.2435L38.1081 11.9625H36.1294L34.0869 14.0999L32.1082 11.9625ZM10.9343 13.067L9.82983 15.6741H12.0376L10.9343 13.067ZM27.2363 14.5058V13.3141V13.313H31.2731L33.0345 15.2188L31.195 17.135H27.2363V15.834H30.7657V14.5058H27.2363Z" fill="white"/>
</svg>
