<svg width="22" height="22" viewBox="0 0 22 22" fill="none" xmlns="http://www.w3.org/2000/svg">
<path d="M16.5013 7.33329H15.5846V5.49996C15.5846 2.96996 13.5313 0.916626 11.0013 0.916626C8.4713 0.916626 6.41797 2.96996 6.41797 5.49996V7.33329H5.5013C4.48839 7.33329 3.66797 8.15371 3.66797 9.16663V18.3333C3.66797 19.3462 4.48839 20.1666 5.5013 20.1666H16.5013C17.5142 20.1666 18.3346 19.3462 18.3346 18.3333V9.16663C18.3346 8.15371 17.5142 7.33329 16.5013 7.33329ZM11.0013 15.5833C9.98838 15.5833 9.16797 14.7629 9.16797 13.75C9.16797 12.737 9.98838 11.9166 11.0013 11.9166C12.0142 11.9166 12.8346 12.737 12.8346 13.75C12.8346 14.7629 12.0142 15.5833 11.0013 15.5833ZM13.843 7.33329H8.15963V5.49996C8.15963 3.93246 9.4338 2.65829 11.0013 2.65829C12.5688 2.65829 13.843 3.93246 13.843 5.49996V7.33329V7.33329Z" fill="#040034"/>
</svg>
