<svg width="45" height="31" viewBox="0 0 45 31" fill="none" xmlns="http://www.w3.org/2000/svg">
<rect x="1.3125" y="0.5" width="42.9385" height="29.1292" rx="5.5" fill="white" stroke="#D9D9D9"/>
<path d="M19.3301 29.5017L44.1239 22.2832V24.5017C44.1239 27.2631 41.8854 29.5017 39.1239 29.5017H19.3301Z" fill="#FD6020"/>
<path fill-rule="evenodd" clip-rule="evenodd" d="M39.4177 12.0654C40.7818 12.0654 41.532 12.6725 41.532 13.8191C41.6002 14.6959 40.9864 15.4378 40.168 15.5727L42.0094 18.0683H40.5772L39.0085 15.6402H38.8721V18.0683H37.7127V12.0654H39.4177ZM38.8721 14.8308H39.2131C39.9634 14.8308 40.3044 14.4935 40.3044 13.8865C40.3044 13.3469 39.9634 13.0097 39.2131 13.0097H38.8721V14.8308ZM33.6888 18.0683H36.9625V17.0566H34.8482V15.4378H36.8943V14.4261H34.8482V13.0771H36.9625V12.0654H33.6888V18.0683V18.0683ZM30.2786 16.1123L28.71 12.0654H27.4823L30.0058 18.2032H30.6197L33.1431 12.0654H31.9155L30.2786 16.1123V16.1123ZM16.4336 15.1006C16.4336 16.7868 17.7976 18.2032 19.5027 18.2032C20.0483 18.2032 20.5257 18.0683 21.0031 17.866V16.517C20.6621 16.9217 20.1847 17.1915 19.6391 17.1915C18.5478 17.1915 17.6612 16.3821 17.6612 15.3029V15.168C17.593 14.0889 18.4796 13.1446 19.5709 13.0771C20.1165 13.0771 20.6621 13.3469 21.0031 13.7516V12.4027C20.5939 12.1329 20.0483 12.0654 19.5709 12.0654C17.7976 11.9305 16.4336 13.3469 16.4336 15.1006V15.1006ZM14.3193 14.3587C13.6373 14.0889 13.4327 13.954 13.4327 13.6167C13.5009 13.212 13.8419 12.8748 14.2511 12.9422C14.5921 12.9422 14.9331 13.1446 15.2059 13.4144L15.8197 12.605C15.3423 12.2003 14.7285 11.9305 14.1147 11.9305C13.1599 11.8631 12.3414 12.605 12.2732 13.5493V13.6167C12.2732 14.4261 12.6142 14.8982 13.7055 15.2355C13.9783 15.3029 14.2511 15.4378 14.5239 15.5727C14.7285 15.7076 14.8649 15.91 14.8649 16.1798C14.8649 16.6519 14.4557 17.0566 14.0465 17.0566H13.9783C13.4327 17.0566 12.9553 16.7193 12.7506 16.2472L12.0004 16.9891C12.4096 17.7311 13.2281 18.1357 14.0465 18.1357C15.1377 18.2032 16.0244 17.3938 16.0926 16.3146V16.1123C16.0244 15.3029 15.6833 14.8982 14.3193 14.3587V14.3587ZM10.3636 18.0683H11.523V12.0654H10.3636V18.0683V18.0683ZM4.97559 12.0654H6.68064H7.02165C8.65851 12.1329 9.95435 13.4818 9.88615 15.1006C9.88615 15.9774 9.47694 16.7868 8.79491 17.3938C8.18109 17.866 7.43087 18.1358 6.68064 18.0683H4.97559V12.0654ZM6.47603 17.0566C7.02165 17.124 7.63547 16.9217 8.04468 16.5844C8.4539 16.1798 8.6585 15.6402 8.6585 15.0331C8.6585 14.4936 8.4539 13.954 8.04468 13.5493C7.63547 13.212 7.02165 13.0097 6.47603 13.0772H6.13502V17.0566H6.47603Z" fill="#040034"/>
<path fill-rule="evenodd" clip-rule="evenodd" d="M24.4811 11.9263C22.776 11.9263 21.3438 13.2752 21.3438 15.0289C21.3438 16.7151 22.7078 18.1315 24.4811 18.1989C26.2543 18.2664 27.6184 16.85 27.6866 15.0963C27.6184 13.3427 26.2543 11.9263 24.4811 11.9263V11.9263Z" fill="#FD6020"/>
</svg>
