<svg width="45" height="31" viewBox="0 0 45 31" fill="none" xmlns="http://www.w3.org/2000/svg">
<rect x="1.375" y="0.5" width="42.9385" height="29.1292" rx="5.5" fill="white" stroke="#D9D9D9"/>
<path fill-rule="evenodd" clip-rule="evenodd" d="M23.0753 21.8197C21.5812 23.1106 19.643 23.8899 17.5252 23.8899C12.7996 23.8899 8.96875 20.01 8.96875 15.224C8.96875 10.438 12.7996 6.55811 17.5252 6.55811C19.643 6.55811 21.5812 7.33739 23.0753 8.62827C24.5694 7.33739 26.5076 6.55811 28.6254 6.55811C33.351 6.55811 37.1819 10.438 37.1819 15.224C37.1819 20.01 33.351 23.8899 28.6254 23.8899C26.5076 23.8899 24.5694 23.1106 23.0753 21.8197Z" fill="#ED0006"/>
<path fill-rule="evenodd" clip-rule="evenodd" d="M23.0752 21.8197C24.9149 20.2303 26.0815 17.8651 26.0815 15.224C26.0815 12.5829 24.9149 10.2178 23.0752 8.62827C24.5693 7.33739 26.5075 6.55811 28.6253 6.55811C33.3509 6.55811 37.1818 10.438 37.1818 15.224C37.1818 20.01 33.3509 23.8899 28.6253 23.8899C26.5075 23.8899 24.5693 23.1106 23.0752 21.8197Z" fill="#F9A000"/>
<path fill-rule="evenodd" clip-rule="evenodd" d="M23.0756 21.8198C24.9153 20.2303 26.0819 17.8652 26.0819 15.2241C26.0819 12.583 24.9153 10.2179 23.0756 8.62842C21.2359 10.2179 20.0693 12.583 20.0693 15.2241C20.0693 17.8652 21.2359 20.2303 23.0756 21.8198Z" fill="#FF5E00"/>
</svg>
