<svg width="44" height="31" viewBox="0 0 44 31" fill="none" xmlns="http://www.w3.org/2000/svg">
<rect x="0.5" y="0.5" width="42.9385" height="29.1292" rx="5.5" fill="white" stroke="#D9D9D9"/>
<path fill-rule="evenodd" clip-rule="evenodd" d="M13.339 20.4102H10.6772L8.68111 12.7952C8.58637 12.4449 8.38521 12.1353 8.08931 11.9893C7.35085 11.6225 6.53712 11.3306 5.64941 11.1834V10.8902H9.9374C10.5292 10.8902 10.9731 11.3306 11.047 11.8421L12.0827 17.335L14.7432 10.8902H17.331L13.339 20.4102ZM18.8106 20.4102H16.2967L18.3667 10.8902H20.8806L18.8106 20.4102ZM24.1329 13.5276C24.2069 13.0148 24.6507 12.7216 25.1686 12.7216C25.9823 12.648 26.8687 12.7952 27.6084 13.1608L28.0523 11.1111C27.3125 10.8179 26.4988 10.6707 25.7604 10.6707C23.3205 10.6707 21.5451 11.9893 21.5451 13.8195C21.5451 15.2117 22.8026 15.9428 23.6903 16.3832C24.6507 16.8223 25.0206 17.1155 24.9466 17.5546C24.9466 18.2133 24.2069 18.5065 23.4684 18.5065C22.5807 18.5065 21.693 18.2869 20.8806 17.9201L20.4367 19.9711C21.3244 20.3366 22.2848 20.4839 23.1725 20.4839C25.9083 20.5562 27.6084 19.2388 27.6084 17.2614C27.6084 14.7713 24.1329 14.6254 24.1329 13.5276V13.5276ZM36.4063 20.4102L34.4103 10.8902H32.2663C31.8225 10.8902 31.3786 11.1834 31.2307 11.6225L27.5345 20.4102H30.1223L30.6388 19.0192H33.8185L34.1144 20.4102H36.4063ZM32.6362 13.4539L33.3746 17.0419H31.3046L32.6362 13.4539Z" fill="#172B85"/>
</svg>
