<svg width="13" height="7" viewBox="0 0 13 7" fill="none" xmlns="http://www.w3.org/2000/svg">
<path d="M12.1815 0.658138C12.1816 0.715858 12.1702 0.773017 12.1481 0.826352C12.1261 0.879686 12.0937 0.92815 12.0529 0.968977L6.63592 6.38568C6.55351 6.46806 6.44176 6.51434 6.32523 6.51434C6.2087 6.51434 6.09695 6.46806 6.01454 6.38568L0.597547 0.968977C0.556727 0.928176 0.524343 0.879736 0.502244 0.82642C0.480145 0.773103 0.468764 0.715956 0.46875 0.658242C0.468736 0.600527 0.480091 0.543375 0.502165 0.490048C0.524239 0.436722 0.5566 0.388264 0.597401 0.347444C0.638201 0.306624 0.686643 0.27424 0.739959 0.252141C0.793275 0.230042 0.850422 0.218661 0.908137 0.218647C0.965851 0.218634 1.023 0.229988 1.07633 0.252062C1.12966 0.274136 1.17811 0.306498 1.21893 0.347298L6.32509 5.45345L11.4312 0.347298C11.4927 0.2858 11.571 0.243913 11.6563 0.226941C11.7416 0.209968 11.83 0.21867 11.9103 0.251947C11.9906 0.285225 12.0592 0.341583 12.1075 0.413887C12.1558 0.486191 12.1816 0.571193 12.1815 0.658138Z" fill="black" fill-opacity="0.7"/>
</svg>
