<svg width="11" height="7" viewBox="0 0 11 7" fill="none" xmlns="http://www.w3.org/2000/svg">
<path d="M10.4265 1.03705C10.4265 1.08707 10.4167 1.13661 10.3975 1.18283C10.3784 1.22906 10.3504 1.27106 10.315 1.30644L5.62027 6.00092C5.54885 6.07232 5.452 6.11243 5.35101 6.11243C5.25002 6.11243 5.15316 6.07232 5.08174 6.00092L0.387015 1.30644C0.351637 1.27108 0.323571 1.2291 0.304419 1.18289C0.285266 1.13669 0.275402 1.08716 0.275391 1.03714C0.275379 0.98712 0.285219 0.937588 0.30435 0.891371C0.323481 0.845155 0.351527 0.803159 0.386888 0.767781C0.422248 0.732404 0.464231 0.704338 0.510438 0.685186C0.556646 0.666033 0.606173 0.656169 0.656192 0.656157C0.706212 0.656145 0.755744 0.665986 0.80196 0.685117C0.848177 0.704247 0.890172 0.732294 0.92555 0.767655L5.35088 5.19299L9.77621 0.767655C9.82948 0.714356 9.89735 0.678055 9.97126 0.663345C10.0452 0.648635 10.1218 0.656177 10.1914 0.685018C10.261 0.713858 10.3205 0.762701 10.3623 0.825365C10.4042 0.888029 10.4265 0.961697 10.4265 1.03705V1.03705Z" fill="black" fill-opacity="0.7"/>
</svg>
