<svg width="9" height="6" viewBox="0 0 9 6" fill="none" xmlns="http://www.w3.org/2000/svg">
<path d="M8.79289 1.10538C8.79291 1.14386 8.78535 1.18197 8.77064 1.21753C8.75592 1.25308 8.73435 1.28539 8.70715 1.31261L5.09582 4.92374C5.04088 4.97867 4.96638 5.00952 4.8887 5.00952C4.81101 5.00952 4.73651 4.97867 4.68157 4.92374L1.07024 1.31261C1.04303 1.28541 1.02144 1.25312 1.0067 1.21757C0.991972 1.18203 0.984384 1.14393 0.984375 1.10545C0.984366 1.06698 0.991935 1.02888 1.00665 0.993325C1.02137 0.957774 1.04294 0.925469 1.07014 0.898256C1.09734 0.871042 1.12964 0.849453 1.16518 0.834721C1.20073 0.819988 1.23882 0.8124 1.2773 0.812391C1.31578 0.812382 1.35388 0.819952 1.38943 0.834668C1.42498 0.849384 1.45728 0.870958 1.4845 0.898159L4.8886 4.30226L8.2927 0.898159C8.33367 0.857159 8.38589 0.829235 8.44273 0.81792C8.49958 0.806604 8.55851 0.812406 8.61206 0.834591C8.66561 0.856776 8.71137 0.894348 8.74356 0.942551C8.77575 0.990754 8.79292 1.04742 8.79289 1.10538Z" fill="black" fill-opacity="0.7"/>
</svg>
